<?xml version="1.0" encoding="UTF-8" standalone="no"?>
<!DOCTYPE svg PUBLIC "-//W3C//DTD SVG 1.1//EN"
 "http://www.w3.org/Graphics/SVG/1.1/DTD/svg11.dtd">
<!-- Generated by graphviz version 12.1.2 (20240928.0832)
 -->
<!-- Title: structs Pages: 1 -->
<svg width="368pt" height="253pt"
 viewBox="0.00 0.00 368.00 253.00" xmlns="http://www.w3.org/2000/svg" xmlns:xlink="http://www.w3.org/1999/xlink">
<g id="graph0" class="graph" transform="scale(1 1) rotate(0) translate(4 249)">
<title>structs</title>
<polygon fill="white" stroke="none" points="-4,4 -4,-249 364,-249 364,4 -4,4"/>
<!-- Animal -->
<g id="node1" class="node">
<title>Animal</title>
<polygon fill="none" stroke="black" points="285,-140 285,-162 352,-162 352,-140 285,-140"/>
<text text-anchor="start" x="296.75" y="-146.7" font-family="Times New Roman,serif" font-weight="bold" font-size="14.00">Animal</text>
<polygon fill="none" stroke="black" points="285,-118 285,-140 310,-140 310,-118 285,-118"/>
<text text-anchor="start" x="287.75" y="-122.45" font-family="Times New Roman,serif" font-size="14.00">🔑</text>
<polygon fill="none" stroke="black" points="310,-118 310,-140 352,-140 352,-118 310,-118"/>
<text text-anchor="start" x="325.75" y="-123.7" font-family="Times New Roman,serif" font-size="14.00">id</text>
<polygon fill="none" stroke="black" points="285,-96 285,-118 310,-118 310,-96 285,-96"/>
<text text-anchor="start" x="295.62" y="-101.7" font-family="Times New Roman,serif" font-size="14.00"> </text>
<polygon fill="none" stroke="black" points="310,-96 310,-118 352,-118 352,-96 310,-96"/>
<text text-anchor="start" x="316" y="-101.7" font-family="Times New Roman,serif" font-size="14.00">name</text>
<polygon fill="none" stroke="black" points="285,-74 285,-96 310,-96 310,-74 285,-74"/>
<text text-anchor="start" x="295.62" y="-79.7" font-family="Times New Roman,serif" font-size="14.00"> </text>
<polygon fill="none" stroke="black" points="310,-74 310,-96 352,-96 352,-74 310,-74"/>
<text text-anchor="start" x="312.62" y="-79.7" font-family="Times New Roman,serif" font-size="14.00">weight</text>
<polygon fill="none" stroke="black" points="285,-52 285,-74 310,-74 310,-52 285,-52"/>
<text text-anchor="start" x="295.62" y="-57.7" font-family="Times New Roman,serif" font-size="14.00"> </text>
<polygon fill="none" stroke="black" points="310,-52 310,-74 352,-74 352,-52 310,-52"/>
<text text-anchor="start" x="320.12" y="-57.7" font-family="Times New Roman,serif" font-size="14.00">legs</text>
</g>
<!-- Bird -->
<g id="node2" class="node">
<title>Bird</title>
<polygon fill="none" stroke="black" points="148,-219 148,-241 233,-241 233,-219 148,-219"/>
<text text-anchor="start" x="177.38" y="-225.7" font-family="Times New Roman,serif" font-weight="bold" font-size="14.00">Bird</text>
<polygon fill="none" stroke="black" points="148,-197 148,-219 173,-219 173,-197 148,-197"/>
<text text-anchor="start" x="150.75" y="-201.45" font-family="Times New Roman,serif" font-size="14.00">🔑</text>
<polygon fill="none" stroke="black" points="173,-197 173,-219 233,-219 233,-197 173,-197"/>
<text text-anchor="start" x="197.75" y="-202.7" font-family="Times New Roman,serif" font-size="14.00">id</text>
<polygon fill="none" stroke="black" points="148,-175 148,-197 173,-197 173,-175 148,-175"/>
<text text-anchor="start" x="158.62" y="-180.7" font-family="Times New Roman,serif" font-size="14.00"> </text>
<polygon fill="none" stroke="black" points="173,-175 173,-197 233,-197 233,-175 173,-175"/>
<text text-anchor="start" x="175.62" y="-180.7" font-family="Times New Roman,serif" font-size="14.00">animal_id</text>
<polygon fill="none" stroke="black" points="148,-153 148,-175 173,-175 173,-153 148,-153"/>
<text text-anchor="start" x="158.62" y="-158.7" font-family="Times New Roman,serif" font-size="14.00"> </text>
<polygon fill="none" stroke="black" points="173,-153 173,-175 233,-175 233,-153 173,-153"/>
<text text-anchor="start" x="177.12" y="-158.7" font-family="Times New Roman,serif" font-size="14.00">nest_type</text>
</g>
<!-- Bird&#45;&gt;Animal -->
<g id="edge4" class="edge">
<title>Bird:e&#45;&gt;Animal:w</title>
<path fill="none" stroke="black" d="M234,-186C263.22,-186 254.02,-143.14 273.04,-131.75"/>
<polygon fill="black" stroke="black" points="273.68,-135.2 282.53,-129.37 271.98,-128.41 273.68,-135.2"/>
</g>
<!-- Bug -->
<g id="node3" class="node">
<title>Bug</title>
<polygon fill="none" stroke="black" points="148,-105 148,-127 233,-127 233,-105 148,-105"/>
<text text-anchor="start" x="178.88" y="-111.7" font-family="Times New Roman,serif" font-weight="bold" font-size="14.00">Bug</text>
<polygon fill="none" stroke="black" points="148,-83 148,-105 173,-105 173,-83 148,-83"/>
<text text-anchor="start" x="150.75" y="-87.45" font-family="Times New Roman,serif" font-size="14.00">🔑</text>
<polygon fill="none" stroke="black" points="173,-83 173,-105 233,-105 233,-83 173,-83"/>
<text text-anchor="start" x="197.75" y="-88.7" font-family="Times New Roman,serif" font-size="14.00">id</text>
<polygon fill="none" stroke="black" points="148,-61 148,-83 173,-83 173,-61 148,-61"/>
<text text-anchor="start" x="158.62" y="-66.7" font-family="Times New Roman,serif" font-size="14.00"> </text>
<polygon fill="none" stroke="black" points="173,-61 173,-83 233,-83 233,-61 173,-61"/>
<text text-anchor="start" x="175.62" y="-66.7" font-family="Times New Roman,serif" font-size="14.00">animal_id</text>
</g>
<!-- Bug&#45;&gt;Animal -->
<g id="edge3" class="edge">
<title>Bug:e&#45;&gt;Animal:w</title>
<path fill="none" stroke="black" d="M234,-72C263.22,-72 254.02,-114.86 273.04,-126.25"/>
<polygon fill="black" stroke="black" points="271.98,-129.59 282.53,-128.63 273.68,-122.8 271.98,-129.59"/>
</g>
<!-- Insect -->
<g id="node4" class="node">
<title>Insect</title>
<polygon fill="none" stroke="black" points="8,-184 8,-206 96,-206 96,-184 8,-184"/>
<text text-anchor="start" x="34.75" y="-190.7" font-family="Times New Roman,serif" font-weight="bold" font-size="14.00">Insect</text>
<polygon fill="none" stroke="black" points="8,-162 8,-184 33,-184 33,-162 8,-162"/>
<text text-anchor="start" x="10.75" y="-166.45" font-family="Times New Roman,serif" font-size="14.00">🔑</text>
<polygon fill="none" stroke="black" points="33,-162 33,-184 96,-184 96,-162 33,-162"/>
<text text-anchor="start" x="59.25" y="-167.7" font-family="Times New Roman,serif" font-size="14.00">id</text>
<polygon fill="none" stroke="black" points="8,-140 8,-162 33,-162 33,-140 8,-140"/>
<text text-anchor="start" x="18.62" y="-145.7" font-family="Times New Roman,serif" font-size="14.00"> </text>
<polygon fill="none" stroke="black" points="33,-140 33,-162 96,-162 96,-140 33,-140"/>
<text text-anchor="start" x="45.75" y="-145.7" font-family="Times New Roman,serif" font-size="14.00">bug_id</text>
<polygon fill="none" stroke="black" points="8,-118 8,-140 33,-140 33,-118 8,-118"/>
<text text-anchor="start" x="18.62" y="-123.7" font-family="Times New Roman,serif" font-size="14.00"> </text>
<polygon fill="none" stroke="black" points="33,-118 33,-140 96,-140 96,-118 33,-118"/>
<text text-anchor="start" x="36" y="-123.7" font-family="Times New Roman,serif" font-size="14.00">has_wings</text>
</g>
<!-- Insect&#45;&gt;Bug -->
<g id="edge2" class="edge">
<title>Insect:e&#45;&gt;Bug:w</title>
<path fill="none" stroke="black" d="M97,-151C126.22,-151 117.02,-108.14 136.04,-96.75"/>
<polygon fill="black" stroke="black" points="136.68,-100.2 145.53,-94.37 134.98,-93.41 136.68,-100.2"/>
</g>
<!-- Spider -->
<g id="node5" class="node">
<title>Spider</title>
<polygon fill="none" stroke="black" points="8,-70 8,-92 96,-92 96,-70 8,-70"/>
<text text-anchor="start" x="32.88" y="-76.7" font-family="Times New Roman,serif" font-weight="bold" font-size="14.00">Spider</text>
<polygon fill="none" stroke="black" points="8,-48 8,-70 33,-70 33,-48 8,-48"/>
<text text-anchor="start" x="10.75" y="-52.45" font-family="Times New Roman,serif" font-size="14.00">🔑</text>
<polygon fill="none" stroke="black" points="33,-48 33,-70 96,-70 96,-48 33,-48"/>
<text text-anchor="start" x="59.25" y="-53.7" font-family="Times New Roman,serif" font-size="14.00">id</text>
<polygon fill="none" stroke="black" points="8,-26 8,-48 33,-48 33,-26 8,-26"/>
<text text-anchor="start" x="18.62" y="-31.7" font-family="Times New Roman,serif" font-size="14.00"> </text>
<polygon fill="none" stroke="black" points="33,-26 33,-48 96,-48 96,-26 33,-26"/>
<text text-anchor="start" x="45.75" y="-31.7" font-family="Times New Roman,serif" font-size="14.00">bug_id</text>
<polygon fill="none" stroke="black" points="8,-4 8,-26 33,-26 33,-4 8,-4"/>
<text text-anchor="start" x="18.62" y="-9.7" font-family="Times New Roman,serif" font-size="14.00"> </text>
<polygon fill="none" stroke="black" points="33,-4 33,-26 96,-26 96,-4 33,-4"/>
<text text-anchor="start" x="35.62" y="-9.7" font-family="Times New Roman,serif" font-size="14.00">toxin_type</text>
</g>
<!-- Spider&#45;&gt;Bug -->
<g id="edge1" class="edge">
<title>Spider:e&#45;&gt;Bug:w</title>
<path fill="none" stroke="black" d="M97,-37C126.22,-37 117.02,-79.86 136.04,-91.25"/>
<polygon fill="black" stroke="black" points="134.98,-94.59 145.53,-93.63 136.68,-87.8 134.98,-94.59"/>
</g>
</g>
</svg>
